<?xml version="1.0" encoding="utf-8"?>
<!-- Generator: Adobe Illustrator 19.0.0, SVG Export Plug-In . SVG Version: 6.00 Build 0)  -->
<svg version="1.1" xmlns="http://www.w3.org/2000/svg" xmlns:xlink="http://www.w3.org/1999/xlink" x="0px" y="0px"
	 viewBox="0 0 475.1 204.3" style="enable-background:new 0 0 475.1 204.3;" xml:space="preserve">
<style type="text/css">
	.st0{fill:#C70000;}
	.st1{fill:#FFFFFF;}
	.st2{display:none;}
</style>
<g id="Layer_2">
	<rect id="XMLID_1_" x="19.6" y="55.6" class="st0" width="86.7" height="86.7"/>
	<rect id="XMLID_2_" x="111.1" y="55.6" class="st0" width="22.3" height="86.7"/>
	<rect id="XMLID_3_" x="138.2" y="55.6" class="st0" width="5.4" height="86.7"/>
</g>
<g id="Layer_3">
	<g id="XMLID_49_">
		<path id="XMLID_125_" class="st1" d="M152,62.1v7.4h7.8v1.9H152v7.9h-2.1v-19h11.4v1.9H152z"/>
		<path id="XMLID_127_" class="st1" d="M173.3,74.4h-8.1l-1.4,4.9h-2.1l5.2-19h4.6l5.2,19h-2.1L173.3,74.4z M165.6,72.5h7.2
			L170,62.1h-1.4L165.6,72.5z"/>
		<path id="XMLID_130_" class="st1" d="M181.4,78.5c-1-0.7-1.8-1.8-2.1-3.2c-0.4-1.4-0.6-3.2-0.6-5.5c0-2.3,0.2-4.1,0.6-5.5
			c0.4-1.4,1.1-2.5,2.1-3.2c1-0.7,2.5-1.1,4.4-1.1c1.5,0,3.2,0.2,5.1,0.6l-0.1,1.8c-1.8-0.3-3.4-0.5-4.8-0.5c-1.4,0-2.5,0.3-3.2,0.8
			c-0.7,0.5-1.2,1.3-1.5,2.5c-0.3,1.1-0.4,2.8-0.4,4.9c0,1.9,0.1,3.3,0.4,4.4c0.2,1.1,0.8,1.8,1.5,2.4c0.8,0.5,1.9,0.8,3.5,0.8
			c1.3,0,2.8-0.2,4.5-0.5l0.1,1.8c-1.9,0.4-3.6,0.6-5,0.6C184,79.5,182.5,79.2,181.4,78.5z"/>
		<path id="XMLID_133_" class="st1" d="M195.9,78.1c-1.1-1-1.6-2.5-1.6-4.6V60.3h2.1v13.3c0,2.7,1.5,4.1,4.4,4.1
			c1.6,0,2.7-0.3,3.5-1s1.2-1.7,1.2-3.1V60.3h2.1v13.2c0,2.1-0.6,3.6-1.7,4.6c-1.1,1-2.8,1.5-5,1.5C198.6,79.5,197,79.1,195.9,78.1z
			"/>
		<path id="XMLID_138_" class="st1" d="M222.5,77.4v1.9h-10.5v-19h2.1v17.1H222.5z"/>
		<path id="XMLID_140_" class="st1" d="M226.5,62.2h-5.9v-1.9h13.7v1.9h-5.8v17.1h-2.1V62.2z"/>
		<path id="XMLID_142_" class="st1" d="M241.1,71.3l-6.1-11h2.4l4.7,8.9l4.7-8.9h2.4l-6,11v8h-2.1V71.3z"/>
		<path id="XMLID_144_" class="st1" d="M260.2,78.5c-1.1-0.7-1.9-1.7-2.3-3.1c-0.5-1.4-0.7-3.3-0.7-5.6c0-2.3,0.2-4.2,0.7-5.6
			c0.5-1.4,1.3-2.5,2.4-3.2c1.1-0.7,2.6-1.1,4.4-1.1c1.8,0,3.3,0.4,4.4,1.1c1.1,0.7,1.9,1.8,2.4,3.2s0.7,3.3,0.7,5.6
			c0,2.3-0.2,4.2-0.7,5.6c-0.5,1.4-1.2,2.4-2.3,3.1s-2.6,1-4.5,1C262.8,79.5,261.3,79.2,260.2,78.5z M267.9,76.9
			c0.8-0.5,1.3-1.3,1.6-2.4s0.5-2.6,0.5-4.6s-0.2-3.5-0.5-4.6c-0.3-1.2-0.9-2-1.6-2.6c-0.8-0.6-1.8-0.8-3.2-0.8
			c-1.4,0-2.4,0.3-3.2,0.8c-0.8,0.5-1.3,1.4-1.6,2.6s-0.5,2.7-0.5,4.6c0,1.9,0.2,3.4,0.5,4.6c0.3,1.1,0.9,2,1.6,2.5s1.9,0.8,3.3,0.8
			S267.1,77.4,267.9,76.9z"/>
		<path id="XMLID_147_" class="st1" d="M278.1,62.1v7.4h7.8v1.9h-7.8v7.9H276v-19h11.4v1.9H278.1z"/>
		<path id="XMLID_149_" class="st1" d="M296.5,60.3h2.1v19h-2.1V60.3z"/>
		<path id="XMLID_151_" class="st1" d="M317.2,60.3v19h-3.9l-7.4-17.1h-0.5v17.1h-2.1v-19h4l7.3,17.1h0.5V60.3H317.2z"/>
		<path id="XMLID_153_" class="st1" d="M323.9,62.1v7.4h7.8v1.9h-7.8v7.9h-2.1v-19h11.4v1.9H323.9z"/>
		<path id="XMLID_172_" class="st1" d="M338.3,78.5c-1.1-0.7-1.9-1.7-2.3-3.1c-0.5-1.4-0.7-3.3-0.7-5.6c0-2.3,0.2-4.2,0.7-5.6
			c0.5-1.4,1.3-2.5,2.4-3.2c1.1-0.7,2.6-1.1,4.4-1.1c1.8,0,3.3,0.4,4.4,1.1c1.1,0.7,1.9,1.8,2.4,3.2s0.7,3.3,0.7,5.6
			c0,2.3-0.2,4.2-0.7,5.6c-0.5,1.4-1.2,2.4-2.3,3.1s-2.6,1-4.5,1C340.9,79.5,339.4,79.2,338.3,78.5z M346,76.9
			c0.8-0.5,1.3-1.3,1.6-2.4s0.5-2.6,0.5-4.6s-0.2-3.5-0.5-4.6c-0.3-1.2-0.9-2-1.6-2.6c-0.8-0.6-1.8-0.8-3.2-0.8
			c-1.4,0-2.4,0.3-3.2,0.8c-0.8,0.5-1.3,1.4-1.6,2.6s-0.5,2.7-0.5,4.6c0,1.9,0.2,3.4,0.5,4.6c0.3,1.1,0.9,2,1.6,2.5s1.9,0.8,3.3,0.8
			S345.2,77.4,346,76.9z"/>
		<path id="XMLID_175_" class="st1" d="M354.1,60.3h7c2,0,3.6,0.5,4.6,1.4c1,0.9,1.5,2.4,1.5,4.4c0,2.9-1.2,4.8-3.5,5.5l3.7,7.7
			h-2.3l-3.4-7.3h-5.4v7.3h-2.1V60.3z M361.2,70.1c2.6,0,3.9-1.3,3.9-4c0-2.7-1.3-4-3.9-4h-4.9v8H361.2z"/>
		<path id="XMLID_178_" class="st1" d="M389.4,60.3v19h-2.1V62.5h-0.4l-5.5,16.1h-2.4l-5.5-16.1h-0.4v16.8H371v-19h3.8l5.4,16.1
			l5.4-16.1H389.4z"/>
		<path id="XMLID_180_" class="st1" d="M404,74.4h-8.1l-1.4,4.9h-2.1l5.2-19h4.6l5.2,19h-2.1L404,74.4z M396.4,72.5h7.2l-2.9-10.4
			h-1.4L396.4,72.5z"/>
		<path id="XMLID_183_" class="st1" d="M413.1,62.2h-5.9v-1.9H421v1.9h-5.8v17.1h-2.1V62.2z"/>
		<path id="XMLID_185_" class="st1" d="M423.6,60.3h2.1v19h-2.1V60.3z"/>
		<path id="XMLID_187_" class="st1" d="M432.7,78.5c-1.1-0.7-1.9-1.7-2.3-3.1c-0.5-1.4-0.7-3.3-0.7-5.6c0-2.3,0.2-4.2,0.7-5.6
			c0.5-1.4,1.3-2.5,2.4-3.2c1.1-0.7,2.6-1.1,4.4-1.1c1.8,0,3.3,0.4,4.4,1.1c1.1,0.7,1.9,1.8,2.4,3.2s0.7,3.3,0.7,5.6
			c0,2.3-0.2,4.2-0.7,5.6c-0.5,1.4-1.2,2.4-2.3,3.1s-2.6,1-4.5,1C435.3,79.5,433.8,79.2,432.7,78.5z M440.4,76.9
			c0.8-0.5,1.3-1.3,1.6-2.4s0.5-2.6,0.5-4.6s-0.2-3.5-0.5-4.6c-0.3-1.2-0.9-2-1.6-2.6c-0.8-0.6-1.8-0.8-3.2-0.8
			c-1.4,0-2.4,0.3-3.2,0.8c-0.8,0.5-1.3,1.4-1.6,2.6s-0.5,2.7-0.5,4.6c0,1.9,0.2,3.4,0.5,4.6c0.3,1.1,0.9,2,1.6,2.5s1.9,0.8,3.3,0.8
			S439.6,77.4,440.4,76.9z"/>
		<path id="XMLID_190_" class="st1" d="M462.4,60.3v19h-3.9l-7.4-17.1h-0.5v17.1h-2.1v-19h4l7.3,17.1h0.5V60.3H462.4z"/>
	</g>
	<g id="XMLID_48_">
		<path id="XMLID_103_" class="st1" d="M154,89.6h-5.9v-1.9h13.7v1.9h-5.8v17.1H154V89.6z"/>
		<path id="XMLID_105_" class="st1" d="M166.7,89.6v6.6h7.8V98h-7.8v6.9h9.4v1.9h-11.6v-19h11.6v1.9H166.7z"/>
		<path id="XMLID_107_" class="st1" d="M181.6,105.9c-1-0.7-1.8-1.8-2.1-3.2c-0.4-1.4-0.6-3.2-0.6-5.5c0-2.3,0.2-4.1,0.6-5.5
			c0.4-1.4,1.1-2.5,2.1-3.2c1-0.7,2.5-1.1,4.4-1.1c1.5,0,3.2,0.2,5.1,0.6l-0.1,1.8c-1.8-0.3-3.4-0.5-4.8-0.5c-1.4,0-2.5,0.3-3.2,0.8
			c-0.7,0.5-1.2,1.3-1.5,2.5c-0.3,1.1-0.4,2.8-0.4,4.9c0,1.9,0.1,3.3,0.4,4.4c0.2,1.1,0.8,1.8,1.5,2.4c0.8,0.5,1.9,0.8,3.5,0.8
			c1.3,0,2.8-0.2,4.5-0.5l0.1,1.8c-1.9,0.4-3.6,0.6-5,0.6C184.1,107,182.6,106.7,181.6,105.9z"/>
		<path id="XMLID_109_" class="st1" d="M208.4,87.7v19h-2.1v-8.6h-9.7v8.6h-2.1v-19h2.1v8.5h9.7v-8.5H208.4z"/>
		<path id="XMLID_111_" class="st1" d="M226.9,87.7v19h-3.9l-7.4-17.1h-0.5v17.1H213v-19h4l7.3,17.1h0.5V87.7H226.9z"/>
		<path id="XMLID_113_" class="st1" d="M233.9,106c-1.1-0.7-1.9-1.7-2.3-3.1c-0.5-1.4-0.7-3.3-0.7-5.6c0-2.3,0.2-4.2,0.7-5.6
			c0.5-1.4,1.3-2.5,2.4-3.2c1.1-0.7,2.6-1.1,4.4-1.1s3.3,0.4,4.4,1.1c1.1,0.7,1.9,1.8,2.4,3.2c0.5,1.4,0.7,3.3,0.7,5.6
			c0,2.3-0.2,4.2-0.7,5.6c-0.5,1.4-1.2,2.4-2.3,3.1c-1.1,0.7-2.6,1-4.5,1C236.5,107,235,106.7,233.9,106z M241.6,104.4
			c0.8-0.5,1.3-1.3,1.6-2.4c0.3-1.1,0.5-2.6,0.5-4.6s-0.2-3.5-0.5-4.6c-0.3-1.2-0.9-2-1.6-2.6s-1.8-0.8-3.2-0.8
			c-1.4,0-2.4,0.3-3.2,0.8c-0.8,0.5-1.3,1.4-1.6,2.6c-0.3,1.2-0.5,2.7-0.5,4.6c0,1.9,0.2,3.4,0.5,4.6c0.3,1.1,0.9,2,1.6,2.5
			c0.8,0.5,1.9,0.8,3.3,0.8C239.8,105.2,240.8,104.9,241.6,104.4z"/>
		<path id="XMLID_116_" class="st1" d="M260.2,104.9v1.9h-10.5v-19h2.1v17.1H260.2z"/>
		<path id="XMLID_118_" class="st1" d="M264.6,106c-1.1-0.7-1.9-1.7-2.3-3.1c-0.5-1.4-0.7-3.3-0.7-5.6c0-2.3,0.2-4.2,0.7-5.6
			c0.5-1.4,1.3-2.5,2.4-3.2c1.1-0.7,2.6-1.1,4.4-1.1c1.8,0,3.3,0.4,4.4,1.1c1.1,0.7,1.9,1.8,2.4,3.2s0.7,3.3,0.7,5.6
			c0,2.3-0.2,4.2-0.7,5.6c-0.5,1.4-1.2,2.4-2.3,3.1s-2.6,1-4.5,1C267.2,107,265.7,106.7,264.6,106z M272.3,104.4
			c0.8-0.5,1.3-1.3,1.6-2.4s0.5-2.6,0.5-4.6s-0.2-3.5-0.5-4.6c-0.3-1.2-0.9-2-1.6-2.6c-0.8-0.6-1.8-0.8-3.2-0.8
			c-1.4,0-2.4,0.3-3.2,0.8c-0.8,0.5-1.3,1.4-1.6,2.6s-0.5,2.7-0.5,4.6c0,1.9,0.2,3.4,0.5,4.6c0.3,1.1,0.9,2,1.6,2.5s1.9,0.8,3.3,0.8
			S271.6,104.9,272.3,104.4z"/>
		<path id="XMLID_121_" class="st1" d="M282.7,106c-1.1-0.7-1.8-1.8-2.3-3.2c-0.5-1.4-0.7-3.3-0.7-5.6c0-2.3,0.2-4.1,0.7-5.5
			c0.5-1.4,1.2-2.5,2.3-3.2c1.1-0.7,2.5-1,4.3-1c1.6,0,3.4,0.2,5.3,0.5l0.9,0.2l-0.1,1.8c-2.3-0.4-4.2-0.6-5.9-0.6
			c-1.4,0-2.5,0.3-3.3,0.8c-0.8,0.5-1.3,1.3-1.6,2.5s-0.5,2.7-0.5,4.6s0.2,3.5,0.5,4.6c0.3,1.1,0.9,2,1.6,2.5
			c0.8,0.5,1.8,0.8,3.2,0.8c1.2,0,2.5-0.1,3.9-0.4v-5.9H288V97h5.2v9.3c-2.3,0.4-4.4,0.7-6.2,0.7C285.2,107,283.8,106.7,282.7,106z"
			/>
		<path id="XMLID_123_" class="st1" d="M300.9,98.8l-6.1-11h2.4l4.7,8.9l4.7-8.9h2.4l-6,11v8h-2.1V98.8z"/>
	</g>
	<g id="XMLID_44_">
		<path id="XMLID_5_" class="st1" d="M166.3,121.3v13h-9.6c-1.7,0-3-0.1-3.9-0.4c-1-0.3-1.7-0.7-2.1-1.3c-0.4-0.6-0.7-1.4-0.7-2.5
			c0-1.3,0.3-3.3,0.8-5.9l1.6,0.1l-0.3,2.1c0,0.2-0.1,0.7-0.2,1.4c-0.1,0.8-0.1,1.4-0.1,1.8c0,0.7,0.2,1.3,0.5,1.7
			c0.3,0.4,0.8,0.7,1.5,0.9c0.7,0.2,1.7,0.3,2.9,0.3h7.7v-11.2H166.3z M155.9,119.2h2v2.2h-2V119.2z M159.1,119.2h2v2.2h-2V119.2z"
			/>
		<path id="XMLID_9_" class="st1" d="M175.1,132.5v1.8h-4.4v-18.6h2v16.8H175.1z"/>
		<path id="XMLID_15_" class="st1" d="M188.7,122.6c1,1,1.5,2.8,1.5,5.2v6.5h-15.1v-1.8h4.3c-0.2-1.5-0.4-3-0.4-4.5
			c0-1.2,0.1-2.3,0.2-3.4c0.1-1.1,0.3-2.1,0.5-2.8c0.4-0.2,1-0.3,1.8-0.5s1.6-0.2,2.5-0.2C186.2,121.1,187.7,121.6,188.7,122.6z
			 M181.2,130.5c0.1,0.8,0.2,1.5,0.2,2h6.8v-4.7c0-1.8-0.4-3-1.1-3.8c-0.7-0.8-1.9-1.1-3.4-1.1c-0.8,0-1.6,0.1-2.3,0.3
			c-0.3,1.5-0.4,3.1-0.4,4.9C181,128.8,181.1,129.7,181.2,130.5z"/>
		<path id="XMLID_18_" class="st1" d="M206.5,134.3h-3.2c-0.1,2.2-0.5,3.8-1.2,4.9c-0.7,1.1-1.8,1.6-3.3,1.6c-0.8,0-2.1-0.1-3.9-0.4
			v-1.8c1.6,0.2,2.9,0.4,3.8,0.4c0.6,0,1.1-0.1,1.5-0.3c0.4-0.2,0.7-0.7,0.9-1.3c0.2-0.7,0.3-1.7,0.3-3h-3.8c-1.9,0-3.1-0.6-3.7-1.8
			c-0.6-1.2-0.9-2.7-0.9-4.6c0-1.6,0.2-2.9,0.5-3.9c0.3-1,0.9-1.8,1.7-2.3c0.8-0.5,1.9-0.8,3.4-0.8c0.7,0,1.5,0.1,2.5,0.2
			c1,0.1,1.8,0.2,2.4,0.3v11.2h3.2V134.3z M195.5,131.2c0.4,0.9,1.4,1.3,2.8,1.3h3.1v-9.7c-0.9-0.1-1.7-0.2-2.4-0.2
			c-1.1,0-1.9,0.2-2.5,0.6c-0.6,0.4-1,1-1.2,1.7c-0.2,0.8-0.4,1.7-0.4,2.9C194.8,129.2,195,130.3,195.5,131.2z"/>
		<path id="XMLID_21_" class="st1" d="M215,132.5v1.8h-8.5v-1.8h3.2v-16.8h2v16.8H215z"/>
		<path id="XMLID_23_" class="st1" d="M215,132.5h6.5v1.8H215V132.5z"/>
		<path id="XMLID_41_" class="st1" d="M237.4,132.5v1.8h-2.7c-0.9,0-1.7-0.1-2.6-0.3c-0.9-0.2-1.7-0.5-2.5-0.9
			c-0.7,0.4-1.6,0.7-2.4,0.9c-0.9,0.2-1.7,0.3-2.6,0.3h-3.1v-1.8h3c1.1,0,2.1-0.2,3.2-0.6c-1.3-1-2.4-2.2-3.2-3.6
			c-0.8-1.4-1.2-2.6-1.2-3.7l-0.1-1.8c2.2-1.2,4.3-1.7,6.4-1.7c2,0,4.2,0.6,6.5,1.7l-0.1,1.8c0,0.7-0.2,1.4-0.6,2.3
			c-0.3,0.9-0.9,1.7-1.5,2.6c-0.7,0.9-1.4,1.7-2.3,2.3c1,0.4,2.1,0.6,3.2,0.6H237.4z M226.3,127.8c0.8,1.2,1.9,2.3,3.2,3.1
			c1.3-0.8,2.4-1.9,3.2-3.1c0.8-1.2,1.2-2.6,1.2-4c-1.7-0.6-3.2-1-4.4-1c-1.2,0-2.7,0.3-4.4,1C225.1,125.3,225.5,126.6,226.3,127.8z
			"/>
		<path id="XMLID_45_" class="st1" d="M255.4,132.5v1.8h-0.8c-0.3,0-0.7-0.1-1.1-0.3s-0.7-0.4-1-0.7v1h-15.1v-1.8h4.3
			c-0.2-1.5-0.4-3-0.4-4.5c0-1.2,0.1-2.3,0.2-3.4c0.1-1.1,0.3-2.1,0.5-2.8c0.4-0.2,1-0.3,1.8-0.5s1.6-0.2,2.5-0.2
			c2.1,0,3.7,0.5,4.7,1.6s1.5,2.8,1.5,5.2v3.7c0.6,0.7,1.2,1,2.1,1H255.4z M243.4,130.5c0.1,0.8,0.2,1.5,0.2,2h6.8v-4.7
			c0-1.8-0.4-3-1.1-3.8c-0.7-0.8-1.9-1.1-3.4-1.1c-0.8,0-1.6,0.1-2.3,0.3c-0.3,1.5-0.4,3.1-0.4,4.9
			C243.3,128.8,243.3,129.7,243.4,130.5z"/>
		<path id="XMLID_50_" class="st1" d="M260.6,115.7v18.6h-5.2v-1.8h3.2v-16.8H260.6z"/>
		<path id="XMLID_52_" class="st1" d="M265.2,115.7h2v18.6h-2V115.7z"/>
		<path id="XMLID_54_" class="st1" d="M282,132.5v1.8h-4.4v-18.6h2v16.8H282z"/>
		<path id="XMLID_56_" class="st1" d="M291.8,132.5v1.8H282v-1.8h3.9v-11.2h2v11.2H291.8z M284.3,136.4h2v2.2h-2V136.4z
			 M287.5,136.4h2v2.2h-2V136.4z"/>
		<path id="XMLID_60_" class="st1" d="M291.8,132.5h6.5v1.8h-6.5V132.5z"/>
		<path id="XMLID_62_" class="st1" d="M310.6,125.5v8.8h-12.4v-1.8h10.4v-7c0-0.9-0.2-1.5-0.7-2c-0.4-0.4-1.1-0.7-2-0.7
			c-0.8,0-2.3,0.1-4.6,0.4l-0.7,0.1l-0.1-1.5c2.6-0.5,4.6-0.8,5.9-0.8C309.2,121.1,310.6,122.6,310.6,125.5z M304.5,136.4h2v2.2h-2
			V136.4z"/>
		<path id="XMLID_65_" class="st1" d="M326.9,134.3h-3.2c-0.1,2.2-0.5,3.8-1.2,4.9c-0.7,1.1-1.8,1.6-3.3,1.6c-0.8,0-2.1-0.1-3.9-0.4
			v-1.8c1.6,0.2,2.9,0.4,3.8,0.4c0.6,0,1.1-0.1,1.5-0.3s0.7-0.7,0.9-1.3c0.2-0.7,0.3-1.7,0.3-3h-3.8c-1.9,0-3.1-0.6-3.7-1.8
			c-0.6-1.2-0.9-2.7-0.9-4.6c0-1.6,0.2-2.9,0.5-3.9c0.3-1,0.9-1.8,1.7-2.3c0.8-0.5,1.9-0.8,3.4-0.8c0.7,0,1.5,0.1,2.5,0.2
			c1,0.1,1.8,0.2,2.4,0.3v11.2h3.2V134.3z M315.9,131.2c0.4,0.9,1.4,1.3,2.7,1.3h3.1v-9.7c-0.9-0.1-1.7-0.2-2.4-0.2
			c-1.1,0-1.9,0.2-2.5,0.6s-1,1-1.2,1.7c-0.2,0.8-0.4,1.7-0.4,2.9C315.2,129.2,315.5,130.3,315.9,131.2z"/>
		<path id="XMLID_68_" class="st1" d="M332.1,115.7v18.6h-5.2v-1.8h3.2v-16.8H332.1z"/>
		<path id="XMLID_70_" class="st1" d="M349.1,134.3h-3.2c-0.1,2.2-0.5,3.8-1.2,4.9c-0.7,1.1-1.8,1.6-3.3,1.6c-0.8,0-2.1-0.1-3.9-0.4
			v-1.8c1.6,0.2,2.9,0.4,3.8,0.4c0.6,0,1.1-0.1,1.5-0.3s0.7-0.7,0.9-1.3c0.2-0.7,0.3-1.7,0.3-3h-3.8c-1.9,0-3.1-0.6-3.7-1.8
			c-0.6-1.2-0.9-2.7-0.9-4.6c0-1.6,0.2-2.9,0.5-3.9c0.3-1,0.9-1.8,1.7-2.3c0.8-0.5,1.9-0.8,3.4-0.8c0.7,0,1.5,0.1,2.5,0.2
			c1,0.1,1.8,0.2,2.4,0.3v11.2h3.2V134.3z M338.1,131.2c0.4,0.9,1.4,1.3,2.7,1.3h3.1v-9.7c-0.9-0.1-1.7-0.2-2.4-0.2
			c-1.1,0-1.9,0.2-2.5,0.6s-1,1-1.2,1.7c-0.2,0.8-0.4,1.7-0.4,2.9C337.5,129.2,337.7,130.3,338.1,131.2z"/>
		<path id="XMLID_73_" class="st1" d="M358.9,132.5v1.8h-9.7v-1.8h3.9v-11.2h2v11.2H358.9z M353,116.8h2v2.2h-2V116.8z"/>
		<path id="XMLID_76_" class="st1" d="M358.9,132.5h6.5v1.8h-6.5V132.5z"/>
		<path id="XMLID_78_" class="st1" d="M382.7,132.5v1.8h-17.4v-1.8H377v-3.8c0-1-0.2-1.9-0.6-2.7c-0.4-0.8-1-1.1-1.9-1.2h-7
			l-1.3-1.8l1.3-2.6c0.3-0.6,0.8-1.4,1.4-2.3c0.6-0.9,1.3-1.7,1.9-2.5l1.4,0.8c-0.8,1.2-1.4,2.1-1.8,2.8c-0.4,0.6-0.8,1.3-1.1,1.9
			l-1,1.9h6.3c1.5,0,2.6,0.5,3.3,1.6c0.7,1.1,1.1,2.4,1.1,4.1v3.7H382.7z"/>
		<path id="XMLID_80_" class="st1" d="M382.7,132.5h6.5v1.8h-6.5V132.5z"/>
		<path id="XMLID_82_" class="st1" d="M395.1,121.3v13h-5.9v-1.8h3.9v-11.2H395.1z M391.5,116.8h2v2.2h-2V116.8z M394.7,116.8h2v2.2
			h-2V116.8z"/>
		<path id="XMLID_86_" class="st1" d="M418.6,132.5v1.8H410c-1.5,0-2.8-0.2-3.6-0.6c-0.9-0.4-1.5-1.1-1.9-2.1
			c-0.4-0.9-0.6-2.2-0.6-3.9c0-1.6,0.2-2.9,0.6-3.9c0.4-1,1-1.7,1.8-2.1c0.9-0.4,2-0.7,3.5-0.7c0.6,0,1.6,0,2.9,0.1s2.3,0.1,3,0.2
			v11.2H418.6z M406.3,130.5c0.3,0.7,0.7,1.2,1.4,1.5c0.6,0.3,1.5,0.5,2.6,0.5h3.3v-9.5c-1.5-0.1-2.7-0.2-3.5-0.2
			c-1.6,0-2.7,0.4-3.3,1.1c-0.6,0.7-1,2-1,3.7C405.9,128.9,406,129.8,406.3,130.5z M407.9,116.8h2v2.2h-2V116.8z M411.1,116.8h2v2.2
			h-2V116.8z"/>
		<path id="XMLID_91_" class="st1" d="M418.6,132.5h6.5v1.8h-6.5V132.5z"/>
		<path id="XMLID_93_" class="st1" d="M425.1,132.5h6.5v1.8h-6.5V132.5z"/>
		<path id="XMLID_95_" class="st1" d="M441.3,132.5v1.8h-9.7v-1.8h3.9v-11.2h2v11.2H441.3z M433.8,136.4h2v2.2h-2V136.4z
			 M437.1,136.4h2v2.2h-2V136.4z"/>
		<path id="XMLID_99_" class="st1" d="M449.8,132.5v1.8h-8.5v-1.8h3.2v-16.8h2v16.8H449.8z"/>
		<path id="XMLID_101_" class="st1" d="M462.4,124.7c0.7,1.1,1.1,2.4,1.1,4.1v5.5h-13.6v-1.8h11.6v-3.8c0-1-0.2-1.9-0.6-2.7
			c-0.4-0.8-1-1.1-1.9-1.2h-7l-1.3-1.8l1.3-2.6c0.3-0.6,0.8-1.4,1.4-2.3c0.6-0.9,1.3-1.7,1.9-2.5l1.4,0.8c-0.8,1.2-1.4,2.1-1.8,2.8
			c-0.4,0.6-0.8,1.3-1.1,1.9l-1,1.9h6.3C460.6,123.1,461.7,123.6,462.4,124.7z"/>
	</g>
</g>
<g id="Layer_4">
	<g id="XMLID_10_">
		<path id="XMLID_196_" class="st1" d="M119.3,63.6V70h7v2.2h-7v7.1h-2.5V61.4h10.9v2.2H119.3z"/>
	</g>
	<g id="XMLID_11_">
		<path id="XMLID_194_" class="st1" d="M121,88.9h2.5v17.8H121V88.9z"/>
	</g>
	<g id="XMLID_12_">
		<path id="XMLID_192_" class="st1" d="M120.9,118.7h-5.3v-2.2h13v2.2h-5.2v15.6h-2.5V118.7z"/>
	</g>
</g>
<g id="Layer_1" class="st2">
</g>
<g id="Layer_5">
	<circle id="XMLID_39_" class="st1" cx="63.9" cy="68.9" r="5.2"/>
	<circle id="XMLID_38_" class="st1" cx="41" cy="84.1" r="5.2"/>
	<circle id="XMLID_37_" class="st1" cx="79.2" cy="82.6" r="5.2"/>
	<circle id="XMLID_36_" class="st1" cx="85.3" cy="97.8" r="5.2"/>
	<circle id="XMLID_35_" class="st1" cx="45.6" cy="110.1" r="5.2"/>
	<rect id="XMLID_34_" x="61.9" y="73.6" class="st1" width="3.8" height="60"/>
	<rect id="XMLID_33_" x="53.4" y="114.5" class="st1" width="3.8" height="19.2"/>
	<rect id="XMLID_32_" x="72.5" y="103.6" class="st1" width="3.8" height="14"/>
	<rect id="XMLID_31_" x="50" y="89.4" class="st1" width="3.8" height="7.5"/>
	
		<rect id="XMLID_30_" x="46.1" y="82.6" transform="matrix(0.5038 -0.8638 0.8638 0.5038 -52.4147 85.2186)" class="st1" width="3.8" height="11.4"/>
	
		<rect id="XMLID_29_" x="55.4" y="91.7" transform="matrix(0.5038 -0.8638 0.8638 0.5038 -57.0967 98.6013)" class="st1" width="3.8" height="14.6"/>
	
		<rect id="XMLID_28_" x="49.4" y="107.6" transform="matrix(0.5038 -0.8638 0.8638 0.5038 -72.3537 100.5263)" class="st1" width="3.8" height="11.4"/>
	
		<rect id="XMLID_27_" x="76.4" y="96.7" transform="matrix(-0.5038 -0.8638 0.8638 -0.5038 29.3131 221.6729)" class="st1" width="3.8" height="11.4"/>
	
		<rect id="XMLID_25_" x="68.5" y="80.8" transform="matrix(-0.5038 -0.8638 0.8638 -0.5038 29.655 193.5208)" class="st1" width="3.8" height="15"/>
	
		<rect id="XMLID_24_" x="67.9" y="112.8" transform="matrix(-0.5038 -0.8638 0.8638 -0.5038 1.9507 239.5527)" class="st1" width="3.8" height="12.8"/>
	<g id="XMLID_4_">
	</g>
	<g id="XMLID_198_">
	</g>
	<g id="XMLID_199_">
	</g>
	<g id="XMLID_200_">
	</g>
	<g id="XMLID_201_">
	</g>
	<g id="XMLID_202_">
	</g>
	<g id="XMLID_203_">
	</g>
	<g id="XMLID_204_">
	</g>
	<g id="XMLID_205_">
	</g>
	<g id="XMLID_206_">
	</g>
	<g id="XMLID_207_">
	</g>
	<g id="XMLID_208_">
	</g>
	<g id="XMLID_209_">
	</g>
	<g id="XMLID_210_">
	</g>
	<g id="XMLID_211_">
	</g>
</g>
</svg>
